<?xml version="1.0" encoding="iso-8859-1"?>
<!-- Generator: Adobe Illustrator 18.0.0, SVG Export Plug-In . SVG Version: 6.00 Build 0)  -->
<!DOCTYPE svg PUBLIC "-//W3C//DTD SVG 1.1//EN" "http://www.w3.org/Graphics/SVG/1.1/DTD/svg11.dtd">
<svg xmlns:dc="http://purl.org/dc/elements/1.1/" xmlns:cc="http://creativecommons.org/ns#" xmlns:rdf="http://www.w3.org/1999/02/22-rdf-syntax-ns#" xmlns:svg="http://www.w3.org/2000/svg" xmlns="http://www.w3.org/2000/svg" xmlns:xlink="http://www.w3.org/1999/xlink" id="svg213" viewBox="0 0 1024 768" height="768px" width="1024px" version="1.1">
		  <metadata id="metadata219">
		    <rdf:rdf>
		      <cc:work rdf:about="">
		        <dc:format>image/svg+xml</dc:format>
		        <dc:type rdf:resource="http://purl.org/dc/dcmitype/StillImage"></dc:type>
		      </cc:work>
		    </rdf:rdf>
		  </metadata>
		  <defs id="defs217"></defs>
		  <g id="logo-group">
		    <image xlink:href="../nounpreview/1754847.png" id="icon" width="200" height="200" x="412" y="0" style="display: none;"></image>
		    <g id="title" style="font-style:normal;font-weight:300;font-size:72px;line-height:1;font-family:'Montserrat Light Alt1';font-variant-ligatures:none;text-align:center;text-anchor:middle" aria-label="GeneralAvailability">
		      <path id="path221" style="font-style: normal; font-weight: 300; font-size: 72px; line-height: 1; font-family: &quot;Montserrat Light Alt1&quot;; font-variant-ligatures: none; text-align: center; text-anchor: middle; fill: rgb(255, 255, 255);" d="m 227.93244,-24.984 v 17.352 c -3.816,3.096 -8.568,4.608 -14.328,4.608 -4.32,0 -8.208,-0.936 -11.664,-2.88 -3.456,-1.944 -6.192,-4.608 -8.208,-7.992 -2.016,-3.384 -2.952,-7.128 -2.952,-11.304 0,-4.176 0.936,-7.92 2.952,-11.304 1.944,-3.384 4.68,-6.048 8.136,-7.992 3.456,-1.872 7.416,-2.88 11.736,-2.88 3.168,0 6.048,0.504 8.64,1.44 2.592,0.936 4.968,2.448 7.128,4.536 l 2.304,-2.448 c -2.232,-2.232 -4.896,-3.96 -7.992,-5.112 -3.096,-1.152 -6.48,-1.8 -10.152,-1.8 -5.04,0 -9.576,1.152 -13.608,3.312 -4.032,2.232 -7.128,5.256 -9.432,9.144 -2.304,3.888 -3.384,8.28 -3.384,13.104 0,4.896 1.08,9.216 3.384,13.104 2.304,3.888 5.4,6.984 9.432,9.144 4.032,2.232 8.496,3.312 13.536,3.312 3.456,0 6.768,-0.504 9.936,-1.656 3.168,-1.08 5.832,-2.664 8.064,-4.824 v -18.864 z" transform="translate(0 296.157516759906) translate(252.00000000000006 63.03808339803776) scale(0.7956248345540236) translate(-187.10844 50.76)"></path>
		      <path id="path223" style="font-style: normal; font-weight: 300; font-size: 72px; line-height: 1; font-family: &quot;Montserrat Light Alt1&quot;; font-variant-ligatures: none; text-align: center; text-anchor: middle; fill: rgb(255, 255, 255);" d="m 268.64394,-4.248 c -2.088,0.864 -4.392,1.296 -6.768,1.296 -3.888,0 -7.128,-1.008 -9.864,-3.024 -2.736,-2.016 -4.608,-4.752 -5.472,-8.208 l 31.752,-6.192 c -0.216,-3.312 -1.008,-6.264 -2.592,-8.928 -1.584,-2.664 -3.672,-4.752 -6.264,-6.264 -2.592,-1.512 -5.544,-2.304 -8.784,-2.304 -3.528,0 -6.696,0.864 -9.432,2.448 -2.808,1.656 -4.968,3.888 -6.552,6.768 -1.584,2.88 -2.304,6.192 -2.304,9.864 0,3.744 0.792,6.984 2.448,9.864 1.656,2.88 3.96,5.184 6.912,6.768 2.952,1.656 6.264,2.448 10.08,2.448 2.88,0 5.544,-0.504 8.064,-1.512 2.376,-1.008 4.464,-2.52 6.12,-4.608 l -2.088,-2.376 c -1.44,1.8 -3.168,3.096 -5.256,3.96 z m -15.624,-28.44 c 2.232,-1.296 4.752,-2.016 7.632,-2.016 2.448,0 4.752,0.576 6.768,1.656 2.016,1.08 3.6,2.592 4.896,4.392 1.224,1.872 2.016,3.96 2.376,6.192 l -28.656,5.616 c -0.144,-0.936 -0.144,-1.656 -0.144,-2.232 0,-2.952 0.576,-5.688 1.872,-8.064 1.224,-2.376 2.952,-4.248 5.256,-5.544 z" transform="translate(0 296.157516759906) translate(295.9626480456999 73.29209626577003) scale(0.7956248345540236) translate(-242.36394 37.872)"></path>
		      <path id="path225" style="font-style: normal; font-weight: 300; font-size: 72px; line-height: 1; font-family: &quot;Montserrat Light Alt1&quot;; font-variant-ligatures: none; text-align: center; text-anchor: middle; fill: rgb(255, 255, 255);" d="m 319.01919,-33.768 c -2.736,-2.736 -6.48,-4.104 -11.16,-4.104 -3.528,0 -6.552,0.792 -9.144,2.232 -2.592,1.512 -4.464,3.6 -5.76,6.192 v -8.136 h -3.456 V 0 h 3.6 v -20.016 c 0,-4.464 1.224,-7.992 3.816,-10.656 2.52,-2.592 5.976,-3.96 10.44,-3.96 3.816,0 6.768,1.152 8.928,3.312 2.16,2.232 3.24,5.472 3.24,9.648 V 0 h 3.6 v -21.96 c 0,-5.112 -1.368,-9.072 -4.104,-11.808 z" transform="translate(0 296.157516759906) translate(333.46462352861244 73.29209626577003) scale(0.7956248345540236) translate(-289.49919 37.872)"></path>
		      <path id="path227" style="font-style: normal; font-weight: 300; font-size: 72px; line-height: 1; font-family: &quot;Montserrat Light Alt1&quot;; font-variant-ligatures: none; text-align: center; text-anchor: middle; fill: rgb(255, 255, 255);" d="m 360.33144,-4.248 c -2.088,0.864 -4.392,1.296 -6.768,1.296 -3.888,0 -7.128,-1.008 -9.864,-3.024 -2.736,-2.016 -4.608,-4.752 -5.472,-8.208 l 31.752,-6.192 c -0.216,-3.312 -1.008,-6.264 -2.592,-8.928 -1.584,-2.664 -3.672,-4.752 -6.264,-6.264 -2.592,-1.512 -5.544,-2.304 -8.784,-2.304 -3.528,0 -6.696,0.864 -9.432,2.448 -2.808,1.656 -4.968,3.888 -6.552,6.768 -1.584,2.88 -2.304,6.192 -2.304,9.864 0,3.744 0.792,6.984 2.448,9.864 1.656,2.88 3.96,5.184 6.912,6.768 2.952,1.656 6.264,2.448 10.08,2.448 2.88,0 5.544,-0.504 8.064,-1.512 2.376,-1.008 4.464,-2.52 6.12,-4.608 l -2.088,-2.376 c -1.44,1.8 -3.168,3.096 -5.256,3.96 z m -15.624,-28.44 c 2.232,-1.296 4.752,-2.016 7.632,-2.016 2.448,0 4.752,0.576 6.768,1.656 2.016,1.08 3.6,2.592 4.896,4.392 1.224,1.872 2.016,3.96 2.376,6.192 l -28.656,5.616 c -0.144,-0.936 -0.144,-1.656 -0.144,-2.232 0,-2.952 0.576,-5.688 1.872,-8.064 1.224,-2.376 2.952,-4.248 5.256,-5.544 z" transform="translate(0 296.157516759906) translate(368.9115000638719 73.29209626577003) scale(0.7956248345540236) translate(-334.05144 37.872)"></path>
		      <path id="path229" style="font-style: normal; font-weight: 300; font-size: 72px; line-height: 1; font-family: &quot;Montserrat Light Alt1&quot;; font-variant-ligatures: none; text-align: center; text-anchor: middle; fill: rgb(255, 255, 255);" d="m 390.04269,-35.64 c -2.448,1.44 -4.248,3.528 -5.4,6.264 v -8.208 h -3.456 V 0 h 3.6 v -19.584 c 0,-4.608 1.152,-8.28 3.528,-10.872 2.304,-2.592 5.616,-3.96 9.792,-3.96 l 0.864,0.072 v -3.528 c -3.528,0 -6.48,0.792 -8.928,2.232 z" transform="translate(0 296.157516759906) translate(406.41347554678447 73.29209626577003) scale(0.7956248345540236) translate(-381.18669 37.872)"></path>
		      <path id="path231" style="font-style: normal; font-weight: 300; font-size: 72px; line-height: 1; font-family: &quot;Montserrat Light Alt1&quot;; font-variant-ligatures: none; text-align: center; text-anchor: middle; fill: rgb(255, 255, 255);" d="m 432.28981,-34.272 c -2.52,-2.376 -6.12,-3.6 -10.728,-3.6 -2.88,0 -5.688,0.504 -8.28,1.44 -2.664,0.936 -4.896,2.232 -6.768,3.888 l 1.8,2.592 c 1.584,-1.44 3.456,-2.592 5.76,-3.456 2.304,-0.864 4.68,-1.296 7.2,-1.296 3.6,0 6.408,0.936 8.28,2.736 1.872,1.872 2.88,4.536 2.88,7.992 v 3.024 h -12.888 c -4.896,0 -8.496,1.008 -10.728,2.952 -2.232,1.944 -3.312,4.464 -3.312,7.56 0,3.24 1.152,5.832 3.6,7.776 2.448,2.016 5.76,2.952 9.936,2.952 3.168,0 5.976,-0.576 8.28,-1.8 2.304,-1.224 4.032,-2.952 5.256,-5.184 V 0 h 3.456 v -23.832 c 0,-4.608 -1.296,-8.064 -3.744,-10.44 z m -4.824,29.448 c -2.16,1.44 -4.824,2.16 -7.92,2.16 -3.312,0 -5.904,-0.648 -7.704,-2.088 -1.872,-1.44 -2.736,-3.384 -2.736,-5.832 0,-2.304 0.792,-4.176 2.448,-5.544 1.656,-1.296 4.32,-2.016 8.064,-2.016 h 12.816 v 7.056 c -1.152,2.736 -2.808,4.824 -4.968,6.264 z" transform="translate(0 296.157516759906) translate(425.76237137328394 73.29209626577003) scale(0.7956248345540236) translate(-405.50581 37.872)"></path>
		      <path id="path233" style="font-style: normal; font-weight: 300; font-size: 72px; line-height: 1; font-family: &quot;Montserrat Light Alt1&quot;; font-variant-ligatures: none; text-align: center; text-anchor: middle; fill: rgb(255, 255, 255);" d="M 450.93669,-53.424 V 0 h 3.6 v -53.424 z" transform="translate(0 296.157516759906) translate(461.9083077569276 60.91853883878584) scale(0.7956248345540236) translate(-450.93669 53.424)"></path>
		      <path id="path235" style="font-style: normal; font-weight: 300; font-size: 72px; line-height: 1; font-family: &quot;Montserrat Light Alt1&quot;; font-variant-ligatures: none; text-align: center; text-anchor: middle; fill: rgb(255, 255, 255);" d="m 489.36444,-50.4 h -3.672 L 462.50844,0 h 3.96 l 21.024,-46.368 21.096,46.368 h 3.96 z" transform="translate(0 296.157516759906) translate(471.1150794361781 63.324508338477216) scale(0.7956248345540236) translate(-462.50844 50.4)"></path>
		      <path id="path237" style="font-style: normal; font-weight: 300; font-size: 72px; line-height: 1; font-family: &quot;Montserrat Light Alt1&quot;; font-variant-ligatures: none; text-align: center; text-anchor: middle; fill: rgb(255, 255, 255);" d="m 548.88594,-37.584 h -3.672 l -15.12,33.624 -14.976,-33.624 h -3.816 L 528.22194,0 h 3.672 z" transform="translate(0 296.157516759906) translate(509.9363998009898 73.52123621812157) scale(0.7956248345540236) translate(-511.30194 37.584)"></path>
		      <path id="path239" style="font-style: normal; font-weight: 300; font-size: 72px; line-height: 1; font-family: &quot;Montserrat Light Alt1&quot;; font-variant-ligatures: none; text-align: center; text-anchor: middle; fill: rgb(255, 255, 255);" d="m 578.96169,-34.272 c -2.52,-2.376 -6.12,-3.6 -10.728,-3.6 -2.88,0 -5.688,0.504 -8.28,1.44 -2.664,0.936 -4.896,2.232 -6.768,3.888 l 1.8,2.592 c 1.584,-1.44 3.456,-2.592 5.76,-3.456 2.304,-0.864 4.68,-1.296 7.2,-1.296 3.6,0 6.408,0.936 8.28,2.736 1.872,1.872 2.88,4.536 2.88,7.992 v 3.024 h -12.888 c -4.896,0 -8.496,1.008 -10.728,2.952 -2.232,1.944 -3.312,4.464 -3.312,7.56 0,3.24 1.152,5.832 3.6,7.776 2.448,2.016 5.76,2.952 9.936,2.952 3.168,0 5.976,-0.576 8.28,-1.8 2.304,-1.224 4.032,-2.952 5.256,-5.184 V 0 h 3.456 v -23.832 c 0,-4.608 -1.296,-8.064 -3.744,-10.44 z m -4.824,29.448 c -2.16,1.44 -4.824,2.16 -7.92,2.16 -3.312,0 -5.904,-0.648 -7.704,-2.088 -1.872,-1.44 -2.736,-3.384 -2.736,-5.832 0,-2.304 0.792,-4.176 2.448,-5.544 1.656,-1.296 4.32,-2.016 8.064,-2.016 h 12.816 v 7.056 c -1.152,2.736 -2.808,4.824 -4.968,6.264 z" transform="translate(0 296.157516759906) translate(542.4581616320114 73.29209626577003) scale(0.7956248345540236) translate(-552.17769 37.872)"></path>
		      <path id="path241" style="font-style: normal; font-weight: 300; font-size: 72px; line-height: 1; font-family: &quot;Montserrat Light Alt1&quot;; font-variant-ligatures: none; text-align: center; text-anchor: middle; fill: rgb(255, 255, 255);" d="M 597.60856,-37.584 V 0 h 3.6 v -37.584 z m -0.288,-9.936 c 0.576,0.576 1.224,0.792 2.088,0.792 0.792,0 1.512,-0.288 2.088,-0.864 0.576,-0.576 0.864,-1.224 0.864,-2.088 0,-0.792 -0.288,-1.44 -0.864,-2.016 -0.576,-0.576 -1.296,-0.864 -2.088,-0.864 -0.864,0 -1.512,0.288 -2.088,0.864 -0.576,0.576 -0.864,1.296 -0.864,2.088 0,0.864 0.288,1.512 0.864,2.088 z" transform="translate(0 296.157516759906) translate(577.6875302500006 61.60595869584052) scale(0.7956248345540236) translate(-596.45656 52.56)"></path>
		      <path id="path243" style="font-style: normal; font-weight: 300; font-size: 72px; line-height: 1; font-family: &quot;Montserrat Light Alt1&quot;; font-variant-ligatures: none; text-align: center; text-anchor: middle; fill: rgb(255, 255, 255);" d="M 616.45231,-53.424 V 0 h 3.6 v -53.424 z" transform="translate(0 296.157516759906) translate(593.5966455355342 60.91853883878584) scale(0.7956248345540236) translate(-616.45231 53.424)"></path>
		      <path id="path245" style="font-style: normal; font-weight: 300; font-size: 72px; line-height: 1; font-family: &quot;Montserrat Light Alt1&quot;; font-variant-ligatures: none; text-align: center; text-anchor: middle; fill: rgb(255, 255, 255);" d="m 658.69606,-34.272 c -2.52,-2.376 -6.12,-3.6 -10.728,-3.6 -2.88,0 -5.688,0.504 -8.28,1.44 -2.664,0.936 -4.896,2.232 -6.768,3.888 l 1.8,2.592 c 1.584,-1.44 3.456,-2.592 5.76,-3.456 2.304,-0.864 4.68,-1.296 7.2,-1.296 3.6,0 6.408,0.936 8.28,2.736 1.872,1.872 2.88,4.536 2.88,7.992 v 3.024 h -12.888 c -4.896,0 -8.496,1.008 -10.728,2.952 -2.232,1.944 -3.312,4.464 -3.312,7.56 0,3.24 1.152,5.832 3.6,7.776 2.448,2.016 5.76,2.952 9.936,2.952 3.168,0 5.976,-0.576 8.28,-1.8 2.304,-1.224 4.032,-2.952 5.256,-5.184 V 0 h 3.456 v -23.832 c 0,-4.608 -1.296,-8.064 -3.744,-10.44 z m -4.824,29.448 c -2.16,1.44 -4.824,2.16 -7.92,2.16 -3.312,0 -5.904,-0.648 -7.704,-2.088 -1.872,-1.44 -2.736,-3.384 -2.736,-5.832 0,-2.304 0.792,-4.176 2.448,-5.544 1.656,-1.296 4.32,-2.016 8.064,-2.016 h 12.816 v 7.056 c -1.152,2.736 -2.808,4.824 -4.968,6.264 z" transform="translate(0 296.157516759906) translate(605.8968065715308 73.29209626577003) scale(0.7956248345540236) translate(-631.91206 37.872)"></path>
		      <path id="path247" style="font-style: normal; font-weight: 300; font-size: 72px; line-height: 1; font-family: &quot;Montserrat Light Alt1&quot;; font-variant-ligatures: none; text-align: center; text-anchor: middle; fill: rgb(255, 255, 255);" d="m 705.71094,-35.424 c -2.88,-1.584 -6.048,-2.448 -9.504,-2.448 -3.312,0 -6.336,0.792 -9,2.376 -2.736,1.584 -4.824,3.744 -6.264,6.48 v -24.408 h -3.6 V 0 h 3.456 v -8.856 c 1.44,2.88 3.528,5.184 6.264,6.768 2.736,1.584 5.76,2.376 9.144,2.376 3.456,0 6.624,-0.792 9.504,-2.448 2.808,-1.584 5.04,-3.888 6.624,-6.768 1.584,-2.88 2.448,-6.12 2.448,-9.864 0,-3.672 -0.864,-6.984 -2.448,-9.864 -1.584,-2.88 -3.816,-5.184 -6.624,-6.768 z m -1.944,30.456 c -2.304,1.368 -4.896,2.016 -7.776,2.016 -2.88,0 -5.472,-0.648 -7.776,-2.016 -2.304,-1.296 -4.104,-3.168 -5.4,-5.616 -1.296,-2.376 -1.944,-5.112 -1.944,-8.208 0,-3.024 0.648,-5.76 1.944,-8.208 1.296,-2.376 3.096,-4.248 5.4,-5.616 2.304,-1.296 4.896,-2.016 7.776,-2.016 2.88,0 5.472,0.72 7.776,2.016 2.304,1.368 4.104,3.24 5.4,5.616 1.296,2.448 2.016,5.184 2.016,8.208 0,3.096 -0.72,5.832 -2.016,8.208 -1.296,2.448 -3.096,4.32 -5.4,5.616 z" transform="translate(0 296.157516759906) translate(642.0427429551745 60.91853883878584) scale(0.7956248345540236) translate(-677.34294 53.424)"></path>
		      <path id="path249" style="font-style: normal; font-weight: 300; font-size: 72px; line-height: 1; font-family: &quot;Montserrat Light Alt1&quot;; font-variant-ligatures: none; text-align: center; text-anchor: middle; fill: rgb(255, 255, 255);" d="M 725.99919,-37.584 V 0 h 3.6 v -37.584 z m -0.288,-9.936 c 0.576,0.576 1.224,0.792 2.088,0.792 0.792,0 1.512,-0.288 2.088,-0.864 0.576,-0.576 0.864,-1.224 0.864,-2.088 0,-0.792 -0.288,-1.44 -0.864,-2.016 -0.576,-0.576 -1.296,-0.864 -2.088,-0.864 -0.864,0 -1.512,0.288 -2.088,0.864 -0.576,0.576 -0.864,1.296 -0.864,2.088 0,0.864 0.288,1.512 0.864,2.088 z" transform="translate(0 296.157516759906) translate(679.8383040020375 61.60595869584052) scale(0.7956248345540236) translate(-724.84719 52.56)"></path>
		      <path id="path251" style="font-style: normal; font-weight: 300; font-size: 72px; line-height: 1; font-family: &quot;Montserrat Light Alt1&quot;; font-variant-ligatures: none; text-align: center; text-anchor: middle; fill: rgb(255, 255, 255);" d="M 744.84294,-53.424 V 0 h 3.6 v -53.424 z" transform="translate(0 296.157516759906) translate(695.7474192875711 60.91853883878584) scale(0.7956248345540236) translate(-744.84294 53.424)"></path>
		      <path id="path253" style="font-style: normal; font-weight: 300; font-size: 72px; line-height: 1; font-family: &quot;Montserrat Light Alt1&quot;; font-variant-ligatures: none; text-align: center; text-anchor: middle; fill: rgb(255, 255, 255);" d="M 763.68669,-37.584 V 0 h 3.6 v -37.584 z m -0.288,-9.936 c 0.576,0.576 1.224,0.792 2.088,0.792 0.792,0 1.512,-0.288 2.088,-0.864 0.576,-0.576 0.864,-1.224 0.864,-2.088 0,-0.792 -0.288,-1.44 -0.864,-2.016 -0.576,-0.576 -1.296,-0.864 -2.088,-0.864 -0.864,0 -1.512,0.288 -2.088,0.864 -0.576,0.576 -0.864,1.296 -0.864,2.088 0,0.864 0.288,1.512 0.864,2.088 z" transform="translate(0 296.157516759906) translate(709.8234149542923 61.60595869584052) scale(0.7956248345540236) translate(-762.53469 52.56)"></path>
		      <path id="path255" style="font-style: normal; font-weight: 300; font-size: 72px; line-height: 1; font-family: &quot;Montserrat Light Alt1&quot;; font-variant-ligatures: none; text-align: center; text-anchor: middle; fill: rgb(255, 255, 255);" d="m 801.17844,-2.376 -1.512,-2.52 c -1.584,1.44 -3.528,2.088 -5.832,2.088 -2.304,0 -4.104,-0.576 -5.256,-1.872 -1.152,-1.296 -1.728,-3.168 -1.728,-5.616 v -24.192 h 11.952 v -3.096 h -11.952 v -8.208 h -3.6 v 8.208 h -6.912 v 3.096 h 6.912 v 24.552 c 0,3.24 0.864,5.76 2.664,7.56 1.728,1.8 4.248,2.664 7.56,2.664 1.44,0 2.88,-0.216 4.248,-0.648 1.368,-0.432 2.52,-1.152 3.456,-2.016 z" transform="translate(0 296.157516759906) translate(720.8060212642674 66.99074757610215) scale(0.7956248345540236) translate(-776.33844 45.792)"></path>
		      <path id="path257" style="font-style: normal; font-weight: 300; font-size: 72px; line-height: 1; font-family: &quot;Montserrat Light Alt1&quot;; font-variant-ligatures: none; text-align: center; text-anchor: middle; fill: rgb(255, 255, 255);" d="m 840.68281,-37.584 h -3.672 l -15.048,33.624 -15.048,-33.624 h -3.816 l 16.92,37.44 -2.016,4.536 c -1.152,2.448 -2.304,4.176 -3.6,5.184 -1.296,1.008 -2.88,1.512 -4.68,1.512 -2.736,0 -5.112,-0.936 -6.984,-2.952 l -1.8,2.736 c 1.008,1.152 2.304,1.944 3.816,2.52 1.512,0.576 3.168,0.864 4.896,0.864 2.592,0 4.824,-0.648 6.696,-2.088 1.872,-1.368 3.6,-3.744 5.04,-7.056 z" transform="translate(0 296.157516759906) translate(740.3786865754851 73.52123621812157) scale(0.7956248345540236) translate(-800.93881 37.584)"></path>
		    </g>
		    <g id="tagline" style="font-style:normal;font-weight:400;font-size:32px;line-height:1;font-family:Montserrat;font-variant-ligatures:none;text-align:center;text-anchor:middle"></g>
		  </g>
		</svg>
